# xmcd
#
# Track frame offsets: 
#        150
#        15707
#        33637
#        48912
#        64293
#        90601
#        102605
#        116636
#        127830
#        146445
#        161336
#
# Disc length: 2493 seconds
#
# Revision: 0
# Processed by: cddbd v1.5.2PL0 Copyright (c) Steve Scherf et al.
# Submitted via: ExactAudioCopy v0.99pb3
#
DISCID=9109bb0b
DTITLE=Apartment - The Dreamer Evasive
DYEAR=2007
DGENRE=Fleet Street
TTITLE0=Paid In Full
TTITLE1=My Brother Chris
TTITLE2=Fall Into Place
TTITLE3=10000 Times
TTITLE4=Pressures
TTITLE5=June July
TTITLE6=Everyone Says I'm Paranoid
TTITLE7=Tokyo For Miko
TTITLE8=Decisions Of Legomen
TTITLE9=Ghost Of An Unforgivable Past
TTITLE10=Beyond My Control
EXTD=
EXTT0=
EXTT1=
EXTT2=
EXTT3=
EXTT4=
EXTT5=
EXTT6=
EXTT7=
EXTT8=
EXTT9=
EXTT10=
PLAYORDER=
